<svg width="20" height="20" viewBox="0 0 20 20" fill="none" xmlns="http://www.w3.org/2000/svg">
<path d="M12.9958 15.7206C13.1632 15.8879 13.2571 16.1148 13.2571 16.3514C13.2571 16.588 13.1632 16.815 12.9958 16.9823C12.8285 17.1496 12.6016 17.2436 12.365 17.2436C12.1284 17.2436 11.9014 17.1496 11.7341 16.9823L5.79662 11.0448C5.71359 10.962 5.64771 10.8637 5.60276 10.7555C5.55781 10.6472 5.53467 10.5311 5.53467 10.4139C5.53467 10.2967 5.55781 10.1806 5.60276 10.0724C5.64771 9.96413 5.71359 9.86581 5.79662 9.78307L11.7341 3.84557C11.9014 3.67826 12.1284 3.58426 12.365 3.58426C12.6016 3.58426 12.8285 3.67826 12.9958 3.84557C13.1632 4.01288 13.2571 4.23981 13.2571 4.47643C13.2571 4.71305 13.1632 4.93997 12.9958 5.10729L7.68994 10.4132L12.9958 15.7206Z" fill="#334155"/>
</svg>
